<mxfile host="app.diagrams.net" modified="2024-01-19T03:21:18.930Z" agent="Mozilla/5.0 (Macintosh; Intel Mac OS X 10_15_7) AppleWebKit/537.36 (KHTML, like Gecko) Chrome/120.0.0.0 Safari/537.36" version="22.1.21" etag="DQ2iz8BuN9jCtfSE9xCu" type="github">
  <diagram name="第 1 页" id="GxnWfoYHs_K-BfSPu6UZ">
    <mxGraphModel>
      <root>
        <mxCell id="0" />
        <mxCell id="1" parent="0" />
      </root>
    </mxGraphModel>
  </diagram>
</mxfile>
